<svg fill="none" height="80" viewBox="0 0 80 80" width="80" xmlns="http://www.w3.org/2000/svg" xmlns:xlink="http://www.w3.org/1999/xlink"><linearGradient id="paint0_linear_796_244" gradientUnits="userSpaceOnUse" x1="40" x2="40" y1="6.667" y2="73.333"><stop offset="0" stop-color="#ffa932"/><stop offset=".416855" stop-color="#f73295"/><stop offset="1" stop-color="#a72ff0"/></linearGradient><g fill="url(#paint0_linear_796_244)"><path d="m56.6667 6.66663h-33.3334c-7.3666 0-13.3333 5.96667-13.3333 13.33337v20c0 1.8333 1.5 3.3333 3.3333 3.3333 1.8334 0 3.3334-1.5 3.3334-3.3333v-20c0-3.6667 3-6.6667 6.6666-6.6667h33.3334c3.6666 0 6.6666 3 6.6666 6.6667v3.3666c0 1.8334 1.5 3.3334 3.3334 3.3334 1.8333 0 3.3333-1.5 3.3333-3.3334v-3.3666c0-7.3667-5.9667-13.33337-13.3333-13.33337z"/><path d="m60 36.6666h-3.3333v-6.6666c0-5.5-4.5-10-10-10h-13.3334c-1.8333 0-3.3333 1.5-3.3333 3.3333s1.5 3.3333 3.3333 3.3333h13.3334c1.8333 0 3.3333 1.5 3.3333 3.3334v6.6666h-16.6667c-5.5 0-10 4.5-10 10v3.3334c0 5.5 4.5 10 10 10h13.3334c5.5 0 10-4.5 10-10v-6.6667h3.3333c1.8333 0 3.3333 1.5 3.3333 3.3333v13.3334c0 3.6666-3 6.6666-6.6666 6.6666h-33.3334c-3.6666 0-6.6666-3-6.6666-6.6666v-10c0-1.8334-1.5-3.3334-3.3334-3.3334-1.8333 0-3.3333 1.5-3.3333 3.3334v10c0 7.3666 5.9667 13.3333 13.3333 13.3333h33.3334c7.3666 0 13.3333-5.9667 13.3333-13.3333v-13.3334c0-5.5-4.5-10-10-10zm-10 13.3334c0 1.8333-1.5 3.3333-3.3333 3.3333h-13.3334c-1.8333 0-3.3333-1.5-3.3333-3.3333v-3.3334c0-1.8333 1.5-3.3333 3.3333-3.3333h16.6667z"/></g></svg>