<svg viewBox="0 0 512 512" xmlns="http://www.w3.org/2000/svg"><g id="Layer_2" data-name="Layer 2"><g id="Layer_1-2" data-name="Layer 1"><g id="S"><path d="m256 0c-141.38 0-256 114.62-256 256s114.62 256 256 256 256-114.62 256-256-114.62-256-256-256zm0 500c-134.76 0-244-109.24-244-244s109.24-244 244-244 244 109.24 244 244-109.24 244-244 244z" fill="#ff73a9"/><circle cx="256" cy="256" fill="#ffe3ec" r="231"/><path d="m470 341-150-198-101 17.26c-7 14.74-27 56.74-32 65.74l89 132c-35 1-75 1-93 0l61 128s2 1 11.13 1c97.58 0 181.87-60 214.87-146z" fill="#ffd7e5"/><path d="m189 299.18h24.5c9.86 0 16.66 5.1 17.68 16.32 1.36 16 4.42 34 26.18 34 16.66 0 22.78-9.86 22.78-22.44 0-27.2-28.9-41.48-54.4-60.18-31.62-23.46-50.32-48.28-50.32-80.24 0-39.44 28.9-69.36 80.92-69.36 59.16 0 78.54 38.42 78.54 66.64 0 9.18-3.4 17.34-14.62 17.34h-24.14c-9.86 0-18.36-5.44-18.7-14.28-.68-13.6-5.44-25.16-20.74-25.16-12.58 0-20.06 7.82-20.06 19 0 23.8 34 39.78 64.94 66 22.1 18.7 38.08 38.76 38.08 73.44 0 48.62-31.62 74.46-82.62 74.46-71.06 0-84.66-47.94-84.66-76.16 0-14.28 4.08-19.38 16.64-19.38z" fill="#ff73a9"/></g></g></g></svg>