<svg id="Layer_1" enable-background="new 0 0 512 512" height="512" viewBox="0 0 512 512" width="512" xmlns="http://www.w3.org/2000/svg"><g><path d="m431.916 59.1c-31.996 0-59.658 18.847-72.474 46.004h-330.466c-15.977 0-28.976 12.974-28.976 28.922v289.924c0 15.963 12.999 28.95 28.976 28.95h408.014c15.978 0 28.976-12.987 28.976-28.95v-212.475c27.176-12.807 46.034-40.431 46.034-72.382 0-44.108-35.925-79.993-80.084-79.993z" fill="#ffd26f"/><path d="m28.976 452.9h408.014c7.969 0 15.195-3.231 20.439-8.45l-191.763-165.448-32.683 28.197-32.683-28.197-191.768 165.442c5.244 5.222 12.473 8.456 20.444 8.456z" fill="#f9c969"/><ellipse cx="431.916" cy="139.093" fill="#fe646f" rx="80.084" ry="79.993"/><path d="m431.916 59.1c-2.849 0-5.662.155-8.435.447 40.208 4.224 71.649 38.284 71.649 79.546 0 41.263-31.441 75.323-71.649 79.547 2.773.291 5.586.447 8.435.447 44.159 0 80.084-35.885 80.084-79.993 0-44.109-35.925-79.994-80.084-79.994z" fill="#fd4755"/><path d="m351.832 139.093c0-12.148 2.738-23.666 7.61-33.989h-330.466c-7.966 0-15.19 3.226-20.433 8.436l224.44 193.659 136.648-117.901c-11.12-13.738-17.799-31.203-17.799-50.205z" fill="#ffe187"/><path d="m444.813 161.951h-4.897v-53.688c0-3.277-1.999-6.222-5.043-7.434-3.046-1.211-6.521-.442-8.771 1.938l-12.869 13.617c-3.035 3.211-2.892 8.275.319 11.31 2.898 2.737 7.303 2.89 10.364.535v33.722h-4.869c-4.418 0-8 3.582-8 8s3.582 8 8 8h25.767c4.418 0 8-3.582 8-8s-3.582-8-8.001-8z" fill="#f9f6f9"/></g></svg>